<svg xmlns="http://www.w3.org/2000/svg" width="117.543" height="108.173" viewBox="0 0 117.543 108.173">
  <g id="foot_print_on" data-name="foot print on" transform="translate(-372.373 -293.205)">
    <g id="Group_52" data-name="Group 52" transform="translate(372.373 293.205)">
      <path id="Path_14" data-name="Path 14" d="M419.452,370.868c-2.248.249-5.324,1.182-8.447,1.892-4.17.943-8.314,1.993-12.49,2.906a14.751,14.751,0,0,1-8.51-.9c-6.985-2.655-10.763-8.492-10.966-16.753a20.622,20.622,0,0,1,6.118-15.617,184.763,184.763,0,0,0,17.811-21.773c2.329-3.26,4.579-6.443,8.159-8.312,8.495-4.439,16.031-3.323,22.719,3.86a37.636,37.636,0,0,1,4.277,5.718,77.538,77.538,0,0,0,10.593,13.054c2.916,2.972,6.006,5.772,8.248,9.306,3.229,5.083,5.436,10.494,4.162,16.69-1.9,9.268-9.215,14.732-18.615,14.356-5.037-.2-9.555-2.283-14.381-3.181C425.565,371.641,423.06,370.828,419.452,370.868Z" transform="translate(-362.103 -267.779)" fill="#b548d9"/>
      <path id="Path_15" data-name="Path 15" d="M412.821,293.208c5.568-.117,10.27,3.885,12.169,8.615,3.717,9.258.585,20.034-6.158,26.217-3.728,3.42-7.788,4.785-12.647,3.234a12.324,12.324,0,0,1-7.282-6.69c-2.062-4.183-2.375-8.653-1.993-13.311.536-6.575,3.794-11.45,8.706-15.447A10.436,10.436,0,0,1,412.821,293.208Z" transform="translate(-334.74 -293.205)" fill="#b548d9"/>
      <path id="Path_16" data-name="Path 16" d="M410.623,315.711c.16,2.866-1.309,6.893-3.481,10.6-2.576,4.394-8.643,6.029-13.575,4.147-6.133-2.339-8.848-7.432-10.72-13.156-1.383-4.223-1.009-8.49-.193-12.833a13.738,13.738,0,0,1,5.678-9.011,11.258,11.258,0,0,1,7.915-1.9c5.607.506,8.7,4.256,11.218,8.62C409.575,305.838,410.513,309.9,410.623,315.711Z" transform="translate(-357.64 -292.767)" fill="#b548d9"/>
      <path id="Path_17" data-name="Path 17" d="M435.773,317.793a23.3,23.3,0,0,1-7.5,15.82c-3.14,3.033-6.769,4.465-11.05,3.735-6-1.025-9.675-5.451-9.8-12.21-.14-7.829,2.7-14.307,9.728-18.457,2.639-1.559,5.457-2.573,8.581-2.029,4.623.8,7.468,3.75,9.032,7.971C435.366,314.249,436.108,315.927,435.773,317.793Z" transform="translate(-318.313 -275.774)" fill="#b548d9"/>
      <path id="Path_18" data-name="Path 18" d="M384.537,305.038c3.8-.183,6.751,1.871,9.237,4.577,5.045,5.487,7.348,11.882,5.393,19.314-1.088,4.134-3.547,7.353-7.829,8.536a11.549,11.549,0,0,1-9.583-1.472c-6.011-3.954-8.785-9.787-9.321-16.848a15.8,15.8,0,0,1,.687-6.334C374.869,307.563,378.833,304.789,384.537,305.038Z" transform="translate(-372.373 -274.974)" fill="#b548d9"/>
    </g>
  </g>
</svg>
