<svg xmlns="http://www.w3.org/2000/svg" width="26.464" height="19.253" viewBox="0 0 26.464 19.253">
  <g id="Group_37" data-name="Group 37" transform="translate(-291.546 -417.01)">
    <path id="Path_5" data-name="Path 5" d="M295.483,431.788a8.5,8.5,0,0,0,1.7,1.532,11.891,11.891,0,0,0,2.935,1.557c.208.075.206.13.078.286-.245.295-.473.6-.69.917a.392.392,0,0,1-.389.183,11.323,11.323,0,0,1-2.439-.434,10.589,10.589,0,0,1-4.943-2.933.6.6,0,0,1-.183-.5,34.95,34.95,0,0,1,1.111-6.909,26.257,26.257,0,0,1,2.106-5.466,3.539,3.539,0,0,1,1.516-1.358,12.245,12.245,0,0,1,4.387-1.6l.135-.021a.486.486,0,0,1,.594.444c.027.146-.078.139-.162.16a11.967,11.967,0,0,0-1.87.6,11.163,11.163,0,0,0-3.377,2.181l-.032.032c.023.032.039.011.055-.011a14.048,14.048,0,0,0,1.408-.656,16.73,16.73,0,0,1,5.64-1.507,17.741,17.741,0,0,1,7.558.889,18.121,18.121,0,0,1,2.785,1.257.564.564,0,0,0,.2.069,5.146,5.146,0,0,0-.869-.784,11.388,11.388,0,0,0-4.209-2.014c-.139-.037-.379-.037-.382-.146a1.257,1.257,0,0,1,.217-.492c.046-.094.123-.039.192-.034a9.444,9.444,0,0,1,2.8.693,13.5,13.5,0,0,1,2.853,1.543,2.442,2.442,0,0,1,.67.951,24.847,24.847,0,0,1,1.98,5.135,35.933,35.933,0,0,1,.967,5.032c.087.677.121,1.358.183,2.039a.478.478,0,0,1-.13.4,9.761,9.761,0,0,1-2.908,2.193,12.176,12.176,0,0,1-4.44,1.248.521.521,0,0,1-.546-.258c-.169-.267-.38-.512-.572-.766-.208-.274-.208-.277.107-.393a11.994,11.994,0,0,0,4.488-2.942c.05-.053.112-.1.124-.176l.043-.066a.051.051,0,0,0,.053-.057l.021,0,.007-.014-.025.021-.057.055-.062.046a20.986,20.986,0,0,1-2.241,1.3,15.563,15.563,0,0,1-4.435,1.289,20.261,20.261,0,0,1-3.569.153,15.143,15.143,0,0,1-8.162-2.581,1.909,1.909,0,0,0-.188-.107l-.059-.048a.093.093,0,0,0-.117-.048l-.023-.034,0,.018.023.011a.1.1,0,0,0,.091.073Zm7.476-3.932a2.449,2.449,0,0,0-.325-1.31,1.962,1.962,0,0,0-3.217-.462,2.622,2.622,0,0,0,.123,3.628,1.87,1.87,0,0,0,2.362.219A2.4,2.4,0,0,0,302.959,427.856Zm7.828.023a2.479,2.479,0,0,0-.327-1.337,1.962,1.962,0,0,0-3.219-.453,2.62,2.62,0,0,0,.133,3.628,1.869,1.869,0,0,0,2.339.226A2.389,2.389,0,0,0,310.787,427.879Z" transform="translate(0 0)" fill="#fff"/>
    <path id="Path_6" data-name="Path 6" d="M293.2,423.421a.093.093,0,0,1,.117.048l-.023.021a.1.1,0,0,1-.091-.073Z" transform="translate(2.134 8.239)" fill="#fff"/>
    <path id="Path_7" data-name="Path 7" d="M293.53,418.526c-.016.023-.032.043-.055.011l.032-.032Z" transform="translate(2.481 1.923)" fill="#fff"/>
    <path id="Path_8" data-name="Path 8" d="M301.469,423.405l.023-.021-.007.013-.02,0Z" transform="translate(12.759 8.199)" fill="#fff"/>
    <path id="Path_9" data-name="Path 9" d="M293.22,423.433l-.023-.011,0-.018.023.034Z" transform="translate(2.121 8.223)" fill="#fff"/>
    <path id="Path_10" data-name="Path 10" d="M301.5,423.392a.051.051,0,0,1-.053.057h0l.057-.055Z" transform="translate(12.729 8.209)" fill="#fff"/>
    <path id="Path_11" data-name="Path 11" d="M301.479,423.417l-.043.066-.021-.021.062-.046Z" transform="translate(12.694 8.241)" fill="#fff"/>
    <path id="Path_12" data-name="Path 12" d="M293.3,423.519l-.05-.059.023-.021.059.048Z" transform="translate(2.186 8.269)" fill="#fff"/>
  </g>
</svg>
