<svg xmlns="http://www.w3.org/2000/svg" width="25.442" height="20.678" viewBox="0 0 25.442 20.678">
  <path id="Path_4" data-name="Path 4" d="M-3315.479-130.644a14.753,14.753,0,0,0,14.853-14.853c0-.226,0-.451-.016-.674a10.576,10.576,0,0,0,2.6-2.7,10.457,10.457,0,0,1-3,.822,5.259,5.259,0,0,0,2.3-2.887,10.493,10.493,0,0,1-3.315,1.268,5.214,5.214,0,0,0-3.811-1.649,5.218,5.218,0,0,0-5.218,5.218,5.374,5.374,0,0,0,.133,1.192,14.83,14.83,0,0,1-10.759-5.455,5.209,5.209,0,0,0-.708,2.622,5.217,5.217,0,0,0,2.324,4.347,5.2,5.2,0,0,1-2.366-.653c0,.023,0,.044,0,.066a5.223,5.223,0,0,0,4.187,5.118,5.25,5.25,0,0,1-1.374.184,5.129,5.129,0,0,1-.981-.1,5.224,5.224,0,0,0,4.876,3.627,10.468,10.468,0,0,1-6.483,2.235,10.708,10.708,0,0,1-1.245-.072,14.761,14.761,0,0,0,8,2.347" transform="translate(3323.479 151.322)" fill="#fff"/>
</svg>
