<svg xmlns="http://www.w3.org/2000/svg" xmlns:xlink="http://www.w3.org/1999/xlink" width="24" height="19.872" viewBox="0 0 24 19.872">
  <defs>
    <clipPath id="clip-path">
      <rect id="Rectangle_70" data-name="Rectangle 70" width="24" height="19.872" fill="#fff"/>
    </clipPath>
  </defs>
  <g id="Group_70" data-name="Group 70" transform="translate(-2 0)">
    <g id="Group_69" data-name="Group 69" transform="translate(2 0)" clip-path="url(#clip-path)">
      <path id="Path_19" data-name="Path 19" d="M17.036,1.953a1.621,1.621,0,0,0,.4-.144c1.228-.5,2.453-1,3.7-1.432A7.731,7.731,0,0,1,22.31.046a2.072,2.072,0,0,1,.956.019.87.87,0,0,1,.671.728,3.331,3.331,0,0,1,.055.846c-.014.159-.017.32-.026.481a5.072,5.072,0,0,0-.1.755c-.074.505-.127,1.014-.2,1.519q-.126.912-.265,1.824c-.122.8-.248,1.607-.375,2.41q-.177,1.12-.361,2.24-.211,1.259-.426,2.516-.208,1.215-.426,2.43c-.127.7-.26,1.393-.391,2.09a7.282,7.282,0,0,1-.289.947l-.014.005.009.009c-.017.034-.036.07-.053.106l-.01,0,.007,0a3.136,3.136,0,0,1-.459.622c-.019,0-.029.009-.029.027-.014,0-.019,0-.021.015a.048.048,0,0,0-.05.041l-.009.005a.1.1,0,0,0-.091.057l-.015,0-.007.012a.1.1,0,0,0-.092.046l-.022.009a.188.188,0,0,0-.147.048l-.086.014-.613-.005-.079-.01a.319.319,0,0,0-.206-.046c-.022-.005-.043-.01-.065-.014a.105.105,0,0,0-.1-.038L18.9,19.74A.115.115,0,0,0,18.8,19.7l-.022-.007a.079.079,0,0,0-.086-.039.988.988,0,0,0-.295-.139.046.046,0,0,0-.051-.033.026.026,0,0,0-.033-.015.077.077,0,0,0-.082-.048l-.022-.01a.092.092,0,0,0-.091-.055c-.6-.415-1.194-.834-1.8-1.244q-1.963-1.328-3.933-2.65-.45-.3-.9-.6a3.8,3.8,0,0,1-.678-.558,2.14,2.14,0,0,1-.231-.286.936.936,0,0,1-.05-1,2.48,2.48,0,0,1,.4-.55c.156-.166.319-.324.48-.485.74-.747,1.518-1.454,2.287-2.172,1.127-1.053,2.257-2.105,3.352-3.194.283-.279.552-.572.824-.863a1.748,1.748,0,0,0,.194-.243.369.369,0,0,0-.026-.426.275.275,0,0,0-.218-.118.637.637,0,0,0-.384.084c-.154.092-.308.183-.461.279-1.691,1.081-3.355,2.2-5.024,3.321q-1.84,1.233-3.674,2.473a7,7,0,0,1-1.137.639,3.23,3.23,0,0,1-1.184.276,3.907,3.907,0,0,1-.677-.057,14.145,14.145,0,0,1-1.822-.428c-.779-.23-1.557-.476-2.326-.738A3.728,3.728,0,0,1,.48,10.53a1.17,1.17,0,0,1-.331-.264A.605.605,0,0,1,.1,9.528,1.216,1.216,0,0,1,.4,9.22a3.693,3.693,0,0,1,.783-.459Q2.712,8.091,4.25,7.425,7.078,6.2,9.9,4.976c2.278-.981,4.56-1.951,6.855-2.891a.907.907,0,0,0,.279-.132" transform="translate(0 0)" fill="#fff"/>
    </g>
  </g>
</svg>
